<?xml version="1.0" encoding="UTF-8"?>
<svg version="1.1" xmlns="http://www.w3.org/2000/svg" width="500" height="500">
<path d="M0 0 C15.84 0 31.68 0 48 0 C48 89.1 48 178.2 48 270 C31.83 270 15.66 270 -1 270 C-1.33 265.38 -1.66 260.76 -2 256 C-3.918125 257.216875 -5.83625 258.43375 -7.8125 259.6875 C-28.59298972 272.54170607 -50.94934184 276.80018307 -75 272 C-92.8345871 266.71936807 -107.82976225 255.70285925 -117.06640625 239.4375 C-129.30933277 216.84273935 -131.85819017 188.73847169 -125 164 C-125.46148437 164.49628906 -125.92296875 164.99257813 -126.3984375 165.50390625 C-142.67512468 182.45610812 -164.13432714 189.56966781 -187.28320312 190.04708862 C-193.75150531 190.12089737 -200.21895344 190.09064252 -206.6875 190.0625 C-213.390625 190.041875 -220.09375 190.02125 -227 190 C-227 216.07 -227 242.14 -227 269 C-243.5 269 -260 269 -277 269 C-277 186.17 -277 103.34 -277 18 C-151.97169626 18 -151.97169626 18 -127.09814453 41.70825195 C-109.46096312 59.37282974 -103.81775078 80.69593653 -103.74023438 104.99926758 C-103.80257551 112.55873019 -104.67892379 119.55727878 -106.34375 126.91796875 C-107.13883936 130.12686185 -107.13883936 130.12686185 -107 134 C-106.46632813 133.49210938 -105.93265625 132.98421875 -105.3828125 132.4609375 C-90.9167324 119.09608149 -73.46671373 113.1419022 -54 112 C-53.15953125 111.94585937 -52.3190625 111.89171875 -51.453125 111.8359375 C-34.13224331 111.25857478 -15.06958473 116.1618959 -2 128 C-1.67 128.33 -1.34 128.66 -1 129 C-0.67 86.43 -0.34 43.86 0 0 Z M-227 66 C-227 90.75 -227 115.5 -227 141 C-217.656875 141.061875 -217.656875 141.061875 -208.125 141.125 C-205.20744873 141.15231201 -205.20744873 141.15231201 -202.23095703 141.18017578 C-188.6736821 141.25522126 -175.32345715 141.05875312 -165 131 C-158.46023756 123.31577913 -154.07257737 114.16030061 -153.5625 103.9375 C-154.76779014 93.08988873 -157.9247272 80.85095966 -166 73 C-178.18519239 64.26344697 -192.92123565 65.74768803 -207.1875 65.875 C-213.725625 65.91625 -220.26375 65.9575 -227 66 Z M-69.71484375 165.015625 C-77.20533192 174.61224065 -80.28349908 184.83884624 -79 197 C-76.40269289 209.36672364 -70.48564043 220.34790381 -59.7890625 227.47265625 C-50.19253405 232.79888483 -38.71945161 234.32634907 -28 232 C-20.14440444 229.56345106 -12.73493231 226.00802432 -7 220 C-6.2255957 219.22172852 -6.2255957 219.22172852 -5.43554688 218.42773438 C0.4707467 211.34438585 -0.08741131 203.34442415 -0.21777344 194.58007812 C-0.24994559 192.00435621 -0.2179963 189.43490537 -0.1796875 186.859375 C-0.1567744 177.83566087 -0.30989725 170.77443594 -7 164 C-7.63220459 163.34273926 -8.26440918 162.68547852 -8.91577148 162.00830078 C-17.92595083 153.06640859 -29.088375 150.6688823 -41.33764648 150.61499023 C-53.18859094 150.84899864 -62.14199741 156.11451176 -69.71484375 165.015625 Z " fill="#7A81F6" transform="translate(372,110)"/>
<path d="M0 0 C30.03 0 60.06 0 91 0 C91 0.33 91 0.66 91 1 C61.63 1 32.26 1 2 1 C2 82.84 2 164.68 2 249 C17.18 249 32.36 249 48 249 C48 223.59 48 198.18 48 172 C48.66 172 49.32 172 50 172 C50 198.07 50 224.14 50 251 C33.5 251 17 251 0 251 C0 168.17 0 85.34 0 0 Z " fill="#8083DA" transform="translate(95,128)"/>
<path d="M0 0 C3 1 3 1 4 3 C6.02463255 3.65213292 6.02463255 3.65213292 8 4 C8.33 3.34 8.66 2.68 9 2 C9.03738281 2.61746094 9.07476562 3.23492187 9.11328125 3.87109375 C9.45365404 8.25589622 9.90727399 12.096281 11.5625 16.1875 C13.85405551 22.43311209 13.62379156 29.44613803 13 36 C12.34 36.66 11.68 37.32 11 38 C11.03480469 37.34515625 11.06960937 36.6903125 11.10546875 36.015625 C11.50816231 22.43909923 7.18352783 11.34241236 0 0 Z " fill="#7E80E1" transform="translate(206,183)"/>
<path d="M0 0 C3 1 3 1 5 3 C5 2.34 5 1.68 5 1 C6.98 1 8.96 1 11 1 C10.67 1.99 10.34 2.98 10 4 C10.99 4.99 11.98 5.98 13 7 C5.01790621 6.69121494 -1.63102439 5.06446761 -9 2 C-9 1.67 -9 1.34 -9 1 C-6.33333333 1 -3.66666667 1 -1 1 C-0.67 0.67 -0.34 0.34 0 0 Z " fill="#7D83E8" transform="translate(295,376)"/>
<path d="M0 0 C2.64 0 5.28 0 8 0 C8 0.66 8 1.32 8 2 C12.62 2 17.24 2 22 2 C22 2.33 22 2.66 22 3 C20.97261719 3.02578125 19.94523437 3.0515625 18.88671875 3.078125 C10.25453591 3.39640544 2.97718688 4.36632377 -5 8 C-4.67 6.35 -4.34 4.7 -4 3 C-3.01 3 -2.02 3 -1 3 C-0.67 2.67 -0.34 2.34 0 2 C0 1.34 0 0.68 0 0 Z " fill="#7C80E5" transform="translate(318,258)"/>
<path d="M0 0 C3.91939465 3.80411834 7.49102731 7.81576108 11 12 C10.071875 11.835 9.14375 11.67 8.1875 11.5 C5.04378647 10.92251612 5.04378647 10.92251612 2 11 C1.34 10.67 0.68 10.34 0 10 C0.33 9.01 0.66 8.02 1 7 C0.34 6.34 -0.32 5.68 -1 5 C-0.625 2.375 -0.625 2.375 0 0 Z " fill="#7A80E5" transform="translate(299,324)"/>
<path d="M0 0 C7.53216715 0.44238385 14.6802723 1.13905228 22 3 C22 3.33 22 3.66 22 4 C18.7 4.33 15.4 4.66 12 5 C11.67 4.34 11.34 3.68 11 3 C8.41394668 2.5316735 8.41394668 2.5316735 5.4375 2.375 C3.91962891 2.26285156 3.91962891 2.26285156 2.37109375 2.1484375 C1.19740234 2.07496094 1.19740234 2.07496094 0 2 C0 1.34 0 0.68 0 0 Z " fill="#7C7EDE" transform="translate(187,129)"/>
<path d="M0 0 C1.134375 0.020625 2.26875 0.04125 3.4375 0.0625 C1.25662889 2.24337111 0.43154832 2.48342345 -2.484375 3.1328125 C-3.26296875 3.30683594 -4.0415625 3.48085938 -4.84375 3.66015625 C-5.6584375 3.83417969 -6.473125 4.00820313 -7.3125 4.1875 C-8.51132813 4.46013672 -8.51132813 4.46013672 -9.734375 4.73828125 C-14.08874478 5.69079964 -18.07606206 6.27958571 -22.5625 6.0625 C-22.5625 5.7325 -22.5625 5.4025 -22.5625 5.0625 C-21.27472656 4.78535156 -19.98695313 4.50820313 -18.66015625 4.22265625 C-16.98172846 3.85696528 -15.30334532 3.49106928 -13.625 3.125 C-12.77486328 2.94259766 -11.92472656 2.76019531 -11.04882812 2.57226562 C-10.23994141 2.39501953 -9.43105469 2.21777344 -8.59765625 2.03515625 C-7.47435913 1.79164429 -7.47435913 1.79164429 -6.32836914 1.54321289 C-0.7049 0.01236667 -0.7049 0.01236667 0 0 Z " fill="#7D81DC" transform="translate(214.5625,292.9375)"/>
<path d="M0 0 C1.09658936 3.28976808 0.79953138 4.71303767 0 8 C-0.99 8 -1.98 8 -3 8 C-4.01405257 9.32267727 -5.01268258 10.65724831 -6 12 C-8 13.3125 -8 13.3125 -10 14 C-10.99 13.67 -11.98 13.34 -13 13 C-12.39671875 12.56429688 -11.7934375 12.12859375 -11.171875 11.6796875 C-6.45218947 8.16276054 -2.88845042 5.14897684 0 0 Z " fill="#7280E0" transform="translate(368,324)"/>
<path d="M0 0 C0.66 0.33 1.32 0.66 2 1 C1.06862408 2.29608947 0.1296434 3.58671632 -0.8125 4.875 C-1.33457031 5.59429687 -1.85664063 6.31359375 -2.39453125 7.0546875 C-4 9 -4 9 -7 11 C-7 11.33 -7 11.66 -7 12 C-8.65 12 -10.3 12 -12 12 C-8 8 -4 4 0 0 Z " fill="#7B80DC" transform="translate(211,235)"/>
<path d="M0 0 C5.81261371 1.73982995 10.83169994 3.8110489 16 7 C12.37673261 8.2077558 11.35853631 7.54311128 8 6 C8 5.34 8 4.68 8 4 C6.68 3.67 5.36 3.34 4 3 C4 3.66 4 4.32 4 5 C3.34 5 2.68 5 2 5 C1.34 3.35 0.68 1.7 0 0 Z " fill="#7A7DD9" transform="translate(216,135)"/>
<path d="M0 0 C1.1055189 0.93590504 2.20935453 1.87379858 3.3125 2.8125 C3.92738281 3.33457031 4.54226562 3.85664063 5.17578125 4.39453125 C6.85424679 5.87172469 8.43882034 7.40039131 10 9 C9.67 9.66 9.34 10.32 9 11 C7.50260417 9.73046875 6.00520833 8.4609375 4.5078125 7.19140625 C2.99405921 5.9121848 2.99405921 5.9121848 1 5 C0.375 2.4375 0.375 2.4375 0 0 Z " fill="#7C7DDD" transform="translate(241,149)"/>
<path d="M0 0 C0.86625 0.2784375 0.86625 0.2784375 1.75 0.5625 C4.20692525 1.04023546 5.64397534 0.75729364 8 0 C8 0.66 8 1.32 8 2 C8.66 2.66 9.32 3.32 10 4 C8.375 4.75 8.375 4.75 6 5 C2.75 3.125 2.75 3.125 0 1 C0 0.67 0 0.34 0 0 Z " fill="#7C84E4" transform="translate(274,370)"/>
<path d="M0 0 C-1.26691507 0.67408308 -2.53870749 1.33900497 -3.8125 2 C-4.52019531 2.37125 -5.22789062 2.7425 -5.95703125 3.125 C-8 4 -8 4 -11 4 C-11 3.01 -11 2.02 -11 1 C-3.375 -1.125 -3.375 -1.125 0 0 Z " fill="#7B7FDB" transform="translate(229,289)"/>
<path d="M0 0 C-2.77082834 2.77082834 -5.18070857 2.53096421 -9 3 C-9.99 3.33 -10.98 3.66 -12 4 C-12.66 3.34 -13.32 2.68 -14 2 C-4.58997722 -0.29612756 -4.58997722 -0.29612756 0 0 Z " fill="#7D81DA" transform="translate(312,223)"/>
<path d="M0 0 C1.65 0 3.3 0 5 0 C2.45394698 2.00047023 0.0335364 3.82572785 -3 5 C-3.99 4.67 -4.98 4.34 -6 4 C-5.34 3.34 -4.68 2.68 -4 2 C-2.68 2 -1.36 2 0 2 C0 1.34 0 0.68 0 0 Z " fill="#868AE0" transform="translate(352,373)"/>
<path d="M0 0 C-0.33 0.99 -0.66 1.98 -1 3 C-3.64 3 -6.28 3 -9 3 C-6.01800145 0.01800145 -4.21244839 0 0 0 Z " fill="#7E80DF" transform="translate(298,226)"/>
<path d="M0 0 C3.37462715 0.54723683 5.08235 1.0549 8 3 C7.67 3.99 7.34 4.98 7 6 C5.83054208 5.19152271 4.66449539 4.37810888 3.5 3.5625 C2.8503125 3.11003906 2.200625 2.65757812 1.53125 2.19140625 C1.0259375 1.79824219 0.520625 1.40507812 0 1 C0 0.67 0 0.34 0 0 Z " fill="#7A7CDB" transform="translate(355,266)"/>
<path d="" fill="#FFFFFF" transform="translate(0,0)"/>
<path d="" fill="#FFFFFF" transform="translate(0,0)"/>
<path d="" fill="#FFFFFF" transform="translate(0,0)"/>
<path d="" fill="#FFFFFF" transform="translate(0,0)"/>
<path d="" fill="#FFFFFF" transform="translate(0,0)"/>
<path d="" fill="#FFFFFF" transform="translate(0,0)"/>
<path d="" fill="#FFFFFF" transform="translate(0,0)"/>
<path d="" fill="#FFFFFF" transform="translate(0,0)"/>
<path d="" fill="#FFFFFF" transform="translate(0,0)"/>
<path d="" fill="#FFFFFF" transform="translate(0,0)"/>
<path d="" fill="#FFFFFF" transform="translate(0,0)"/>
<path d="" fill="#FFFFFF" transform="translate(0,0)"/>
<path d="" fill="#FFFFFF" transform="translate(0,0)"/>
<path d="" fill="#FFFFFF" transform="translate(0,0)"/>
<path d="" fill="#FFFFFF" transform="translate(0,0)"/>
<path d="" fill="#FFFFFF" transform="translate(0,0)"/>
<path d="" fill="#FFFFFF" transform="translate(0,0)"/>
<path d="" fill="#FFFFFF" transform="translate(0,0)"/>
<path d="" fill="#FFFFFF" transform="translate(0,0)"/>
<path d="" fill="#FFFFFF" transform="translate(0,0)"/>
<path d="" fill="#FFFFFF" transform="translate(0,0)"/>
<path d="" fill="#FFFFFF" transform="translate(0,0)"/>
<path d="" fill="#FFFFFF" transform="translate(0,0)"/>
<path d="" fill="#FFFFFF" transform="translate(0,0)"/>
<path d="" fill="#FFFFFF" transform="translate(0,0)"/>
<path d="" fill="#FFFFFF" transform="translate(0,0)"/>
<path d="" fill="#FFFFFF" transform="translate(0,0)"/>
<path d="" fill="#FFFFFF" transform="translate(0,0)"/>
<path d="" fill="#FFFFFF" transform="translate(0,0)"/>
<path d="" fill="#FFFFFF" transform="translate(0,0)"/>
<path d="" fill="#FFFFFF" transform="translate(0,0)"/>
<path d="" fill="#FFFFFF" transform="translate(0,0)"/>
<path d="" fill="#FFFFFF" transform="translate(0,0)"/>
<path d="" fill="#FFFFFF" transform="translate(0,0)"/>
<path d="" fill="#FFFFFF" transform="translate(0,0)"/>
<path d="" fill="#FFFFFF" transform="translate(0,0)"/>
<path d="" fill="#FFFFFF" transform="translate(0,0)"/>
<path d="" fill="#FFFFFF" transform="translate(0,0)"/>
<path d="" fill="#FFFFFF" transform="translate(0,0)"/>
<path d="" fill="#FFFFFF" transform="translate(0,0)"/>
<path d="" fill="#FFFFFF" transform="translate(0,0)"/>
<path d="" fill="#FFFFFF" transform="translate(0,0)"/>
<path d="" fill="#FFFFFF" transform="translate(0,0)"/>
<path d="" fill="#FFFFFF" transform="translate(0,0)"/>
<path d="" fill="#FFFFFF" transform="translate(0,0)"/>
<path d="" fill="#FFFFFF" transform="translate(0,0)"/>
<path d="" fill="#FFFFFF" transform="translate(0,0)"/>
<path d="" fill="#FFFFFF" transform="translate(0,0)"/>
<path d="" fill="#FFFFFF" transform="translate(0,0)"/>
<path d="" fill="#FFFFFF" transform="translate(0,0)"/>
<path d="" fill="#FFFFFF" transform="translate(0,0)"/>
<path d="" fill="#FFFFFF" transform="translate(0,0)"/>
<path d="" fill="#FFFFFF" transform="translate(0,0)"/>
<path d="" fill="#FFFFFF" transform="translate(0,0)"/>
<path d="" fill="#FFFFFF" transform="translate(0,0)"/>
<path d="" fill="#FFFFFF" transform="translate(0,0)"/>
<path d="" fill="#FFFFFF" transform="translate(0,0)"/>
<path d="" fill="#FFFFFF" transform="translate(0,0)"/>
<path d="" fill="#FFFFFF" transform="translate(0,0)"/>
<path d="" fill="#FFFFFF" transform="translate(0,0)"/>
<path d="" fill="#FFFFFF" transform="translate(0,0)"/>
<path d="" fill="#FFFFFF" transform="translate(0,0)"/>
<path d="" fill="#FFFFFF" transform="translate(0,0)"/>
<path d="" fill="#FFFFFF" transform="translate(0,0)"/>
<path d="" fill="#FFFFFF" transform="translate(0,0)"/>
<path d="" fill="#FFFFFF" transform="translate(0,0)"/>
<path d="" fill="#FFFFFF" transform="translate(0,0)"/>
</svg>
